<svg width="415" height="129" viewBox="0 0 415 129" fill="none" xmlns="http://www.w3.org/2000/svg">
<path d="M387.731 62.551V29.5777H374.879V18.2974H414.877V29.5777H402.069V62.551H387.731Z" fill="white"/>
<path d="M355.185 62.551L341.528 39.4263L355.615 18.2974H370.521L356.649 38.6454L371.9 62.551H355.185ZM326.795 62.551V18.2974H340.925V34.22H354.323V45.5004H340.925V62.551H326.795Z" fill="white"/>
<path d="M288.697 63.827C285.75 63.827 283.106 63.2637 280.766 62.1371C278.426 60.9815 276.577 59.3493 275.219 57.2405C273.861 55.1028 273.182 52.5461 273.182 49.5707C273.182 47.0285 273.803 44.7752 275.045 42.8108C276.317 40.8464 278.223 39.2287 280.766 37.9576C283.309 36.6865 286.501 35.8343 290.344 35.401C294.216 34.9388 298.738 34.9388 303.909 35.401L304.039 44.2408C301.295 43.7497 298.81 43.5041 296.585 43.5041C294.389 43.4752 292.511 43.663 290.951 44.0674C289.42 44.443 288.235 45.0352 287.397 45.8441C286.559 46.6529 286.14 47.6496 286.14 48.834C286.14 50.3651 286.718 51.5351 287.874 52.3439C289.058 53.1528 290.633 53.5572 292.598 53.5572C294.302 53.5572 295.834 53.2539 297.192 52.6473C298.579 52.0406 299.677 51.1595 300.486 50.004C301.323 48.8196 301.742 47.3752 301.742 45.6707V35.5743C301.742 33.9855 301.41 32.5844 300.746 31.3711C300.081 30.1578 299.026 29.2189 297.582 28.5545C296.166 27.8611 294.274 27.5145 291.904 27.5145C289.622 27.5145 287.354 27.8611 285.1 28.5545C282.846 29.2189 280.824 30.23 279.033 31.5877L275.392 21.8379C278.252 20.0469 281.315 18.7325 284.58 17.8947C287.845 17.028 291.052 16.5947 294.201 16.5947C298.362 16.5947 302.017 17.2592 305.166 18.588C308.344 19.9169 310.829 21.9679 312.621 24.7412C314.412 27.5145 315.308 31.0677 315.308 35.401V62.527H303.043V57.8471C301.627 59.7538 299.677 61.2271 297.192 62.267C294.707 63.307 291.875 63.827 288.697 63.827Z" fill="white"/>
<path d="M175.761 63.8273C170.94 63.8273 166.708 62.8594 163.063 60.9235C159.419 58.9588 156.578 56.2284 154.541 52.7323C152.503 49.2074 151.484 45.0901 151.484 40.3806C151.484 36.9712 152.073 33.8363 153.249 30.9759C154.454 28.1154 156.119 25.6451 158.242 23.5648C160.395 21.4845 162.92 19.8809 165.818 18.7541C168.745 17.5984 171.959 17.0205 175.46 17.0205C179.305 17.0205 182.735 17.7139 185.748 19.1008C188.761 20.4588 191.243 22.3657 193.194 24.8216C195.174 27.2487 196.538 30.1235 197.284 33.4462C198.03 36.74 198.058 40.3228 197.37 44.1944H164.398C164.426 45.928 164.943 47.4449 165.947 48.7451C166.952 50.0453 168.329 51.071 170.08 51.8222C171.83 52.5445 173.867 52.9057 176.192 52.9057C178.775 52.9057 181.228 52.5734 183.552 51.9089C185.877 51.2155 188.101 50.1609 190.224 48.7451L194.658 58.3665C193.309 59.4066 191.559 60.3457 189.407 61.1836C187.283 61.9926 185.016 62.6282 182.606 63.0905C180.224 63.5817 177.942 63.8273 175.761 63.8273ZM165.259 34.6164H183.94C183.883 32.3916 183.065 30.6147 181.486 29.2856C179.908 27.9565 177.77 27.292 175.073 27.292C172.347 27.292 170.08 27.9565 168.272 29.2856C166.493 30.6147 165.488 32.3916 165.259 34.6164Z" fill="white"/>
<path d="M119.944 62.551V29.5777H107.229V18.2974H146.802V29.5777H134.13V62.551H119.944Z" fill="white"/>
<path d="M53.1895 80.8479V18.3231H65.5376V23.4033C67.1957 21.4638 69.3046 19.9152 71.8644 18.7573C74.4533 17.5994 77.4495 17.0205 80.8528 17.0205C85.0998 17.0205 88.8813 17.9902 92.1975 19.9297C95.5427 21.8691 98.1752 24.6045 100.095 28.136C102.015 31.6675 102.975 35.778 102.975 40.4673C102.975 43.7672 102.422 46.8501 101.317 49.7158C100.24 52.5526 98.6988 55.042 96.6917 57.184C94.6845 59.2971 92.3138 60.9471 89.5795 62.1339C86.8742 63.3207 83.8781 63.9141 80.591 63.9141C77.9731 63.9141 75.5587 63.4944 73.3479 62.6549C71.1663 61.8155 69.2028 60.6287 67.4575 59.0945V80.8479H53.1895ZM78.1912 51.6697C80.2565 51.6697 82.1037 51.221 83.7326 50.3237C85.3616 49.3974 86.6415 48.0948 87.5723 46.4159C88.5032 44.737 88.9686 42.7541 88.9686 40.4673C88.9686 38.1516 88.4886 36.1687 87.5287 34.5188C86.5979 32.8399 85.318 31.5517 83.689 30.6544C82.0891 29.7281 80.2565 29.265 78.1912 29.265C76.155 29.265 74.3224 29.7281 72.6935 30.6544C71.0645 31.5517 69.7846 32.8399 68.8537 34.5188C67.9229 36.1687 67.4575 38.1516 67.4575 40.4673C67.4575 42.7541 67.9229 44.737 68.8537 46.4159C69.7846 48.0948 71.0499 49.3974 72.6498 50.3237C74.2788 51.221 76.1259 51.6697 78.1912 51.6697Z" fill="white"/>
<path d="M15.5156 63.827C12.5685 63.827 9.92477 63.2637 7.58443 62.1371C5.24409 60.9815 3.39494 59.3493 2.03696 57.2405C0.678987 55.1028 0 52.5461 0 49.5707C0 47.0285 0.621201 44.7752 1.8636 42.8108C3.1349 40.8464 5.04184 39.2287 7.58443 37.9576C10.127 36.6865 13.3197 35.8343 17.1625 35.401C21.0342 34.9388 25.5559 34.9388 30.7278 35.401L30.8578 44.2408C28.113 43.7497 25.6282 43.5041 23.4034 43.5041C21.2075 43.4752 19.3295 43.663 17.7692 44.0674C16.2379 44.443 15.0533 45.0352 14.2154 45.8441C13.3775 46.6529 12.9585 47.6496 12.9585 48.834C12.9585 50.3651 13.5364 51.5351 14.6921 52.3439C15.8767 53.1528 17.4514 53.5572 19.4161 53.5572C21.1208 53.5572 22.6522 53.2539 24.0101 52.6473C25.397 52.0406 26.4949 51.1595 27.3039 50.004C28.1418 48.8196 28.5608 47.3752 28.5608 45.6707V35.5743C28.5608 33.9855 28.2285 32.5844 27.564 31.3711C26.8994 30.1578 25.8448 29.2189 24.4002 28.5545C22.9844 27.8611 21.0919 27.5145 18.7227 27.5145C16.4402 27.5145 14.172 27.8611 11.9184 28.5545C9.66473 29.2189 7.64222 30.23 5.85085 31.5877L2.21032 21.8379C5.07073 20.0469 8.1334 18.7325 11.3983 17.8947C14.6632 17.028 17.8704 16.5947 21.0197 16.5947C25.1803 16.5947 28.8353 17.2592 31.9846 18.588C35.1629 19.9169 37.6477 21.9679 39.439 24.7412C41.2304 27.5145 42.1261 31.0677 42.1261 35.401V62.527H29.861V57.8471C28.4452 59.7538 26.4949 61.2271 24.0101 62.267C21.5253 63.307 18.6938 63.827 15.5156 63.827Z" fill="white"/>
<path fill-rule="evenodd" clip-rule="evenodd" d="M242.766 17.4648C246.751 17.8804 250.3 18.6786 253.409 19.8643C258.197 21.6609 261.83 24.2982 264.311 27.7754C266.82 31.2237 268.075 35.4397 268.075 40.4238C268.075 44.162 267.325 47.4802 265.825 50.3779C264.354 53.2757 262.22 55.7102 259.422 57.6807C257.408 59.0991 255.072 60.275 252.415 61.2129L246.493 50.9541C249.156 50.0846 251.101 48.7784 252.327 47.0312C253.567 45.2636 254.188 43.0608 254.188 40.4238C254.187 37.7581 253.553 35.556 252.284 33.8174C251.044 32.0497 249.053 30.7307 246.313 29.8613C245.259 29.5121 244.077 29.231 242.766 29.0176V44.498L242.76 44.4883V80.8477H228.575V63.3701C224.674 62.951 221.185 62.1571 218.106 60.9834C213.319 59.1578 209.669 56.5066 207.16 53.0293C204.651 49.552 203.396 45.35 203.396 40.4238C203.397 35.4687 204.68 31.2527 207.247 27.7754C209.814 24.2981 213.52 21.6609 218.365 19.8643C221.378 18.7291 224.782 17.9469 228.575 17.5176V0H242.766V17.4648ZM228.575 29.0098C227.249 29.2242 226.052 29.5077 224.984 29.8613C222.302 30.7307 220.327 32.0498 219.058 33.8174C217.818 35.556 217.197 37.7581 217.197 40.4238C217.197 43.0608 217.817 45.2636 219.058 47.0312C220.327 48.7988 222.317 50.117 225.028 50.9863C226.086 51.3219 227.268 51.5918 228.575 51.7979V29.0098Z" fill="white"/>
<path d="M250.345 80.8599C250.729 77.2846 251.43 74.0556 252.448 71.1714L262.787 77.1392C262.768 77.1968 262.747 77.2546 262.729 77.313C262.393 78.3706 262.124 79.5531 261.918 80.8599H250.345Z" fill="white"/>
<path d="M392.797 124.165V116.207H394.34C394.718 115.814 395.044 115.388 395.317 114.929C395.59 114.471 395.827 113.929 396.028 113.302C396.237 112.667 396.414 111.895 396.559 110.987C396.704 110.07 396.832 108.965 396.945 107.671L397.572 100.341H409.339V116.207H412.184V124.165H409.339V118.86H395.643V124.165H392.797ZM397.572 116.207H406.494V102.993H400.224L399.742 107.671C399.541 109.608 399.292 111.3 398.994 112.747C398.697 114.194 398.223 115.347 397.572 116.207Z" fill="white"/>
<path d="M382.039 119.246C380.368 119.246 378.901 118.848 377.639 118.052C376.385 117.256 375.404 116.143 374.697 114.712C373.998 113.282 373.648 111.61 373.648 109.697C373.648 107.768 373.998 106.084 374.697 104.645C375.404 103.206 376.385 102.089 377.639 101.293C378.901 100.497 380.368 100.1 382.039 100.1C383.711 100.1 385.174 100.497 386.428 101.293C387.69 102.089 388.671 103.206 389.37 104.645C390.077 106.084 390.431 107.768 390.431 109.697C390.431 111.61 390.077 113.282 389.37 114.712C388.671 116.143 387.69 117.256 386.428 118.052C385.174 118.848 383.711 119.246 382.039 119.246ZM382.039 116.69C383.309 116.69 384.354 116.364 385.174 115.713C385.994 115.062 386.601 114.206 386.995 113.145C387.389 112.084 387.586 110.935 387.586 109.697C387.586 108.459 387.389 107.305 386.995 106.236C386.601 105.167 385.994 104.303 385.174 103.644C384.354 102.985 383.309 102.656 382.039 102.656C380.769 102.656 379.725 102.985 378.905 103.644C378.085 104.303 377.478 105.167 377.084 106.236C376.69 107.305 376.493 108.459 376.493 109.697C376.493 110.935 376.69 112.084 377.084 113.145C377.478 114.206 378.085 115.062 378.905 115.713C379.725 116.364 380.769 116.69 382.039 116.69Z" fill="white"/>
<path d="M353.827 125.805V100.341H356.576V103.283H356.913C357.122 102.961 357.412 102.551 357.781 102.053C358.159 101.546 358.698 101.096 359.397 100.702C360.104 100.3 361.061 100.1 362.266 100.1C363.826 100.1 365.2 100.489 366.39 101.269C367.579 102.049 368.508 103.154 369.175 104.585C369.842 106.015 370.176 107.703 370.176 109.648C370.176 111.61 369.842 113.31 369.175 114.749C368.508 116.179 367.583 117.288 366.402 118.076C365.22 118.856 363.858 119.246 362.315 119.246C361.125 119.246 360.173 119.049 359.457 118.655C358.742 118.253 358.191 117.799 357.805 117.292C357.42 116.778 357.122 116.352 356.913 116.014H356.672V125.805H353.827ZM356.624 109.6C356.624 110.999 356.829 112.233 357.239 113.302C357.649 114.363 358.247 115.195 359.035 115.797C359.823 116.392 360.787 116.69 361.929 116.69C363.118 116.69 364.111 116.376 364.907 115.749C365.711 115.114 366.313 114.262 366.715 113.193C367.125 112.116 367.33 110.918 367.33 109.6C367.33 108.298 367.129 107.125 366.727 106.08C366.334 105.027 365.735 104.195 364.931 103.584C364.135 102.965 363.134 102.656 361.929 102.656C360.771 102.656 359.799 102.949 359.011 103.536C358.223 104.114 357.629 104.926 357.227 105.971C356.825 107.008 356.624 108.218 356.624 109.6Z" fill="white"/>
<path d="M341.092 119.246C339.42 119.246 337.953 118.848 336.691 118.052C335.437 117.256 334.456 116.143 333.749 114.712C333.05 113.282 332.7 111.61 332.7 109.697C332.7 107.768 333.05 106.084 333.749 104.645C334.456 103.206 335.437 102.089 336.691 101.293C337.953 100.497 339.42 100.1 341.092 100.1C342.764 100.1 344.226 100.497 345.48 101.293C346.742 102.089 347.723 103.206 348.422 104.645C349.13 106.084 349.483 107.768 349.483 109.697C349.483 111.61 349.13 113.282 348.422 114.712C347.723 116.143 346.742 117.256 345.48 118.052C344.226 118.848 342.764 119.246 341.092 119.246ZM341.092 116.69C342.362 116.69 343.407 116.364 344.226 115.713C345.046 115.062 345.653 114.206 346.047 113.145C346.441 112.084 346.638 110.935 346.638 109.697C346.638 108.459 346.441 107.305 346.047 106.236C345.653 105.167 345.046 104.303 344.226 103.644C343.407 102.985 342.362 102.656 341.092 102.656C339.822 102.656 338.777 102.985 337.957 103.644C337.137 104.303 336.53 105.167 336.136 106.236C335.743 107.305 335.546 108.459 335.546 109.697C335.546 110.935 335.743 112.084 336.136 113.145C336.53 114.206 337.137 115.062 337.957 115.713C338.777 116.364 339.822 116.69 341.092 116.69Z" fill="white"/>
<path d="M330.376 100.341V102.993H321.792V118.86H318.947V100.341H330.376Z" fill="white"/>
<path d="M297.956 119.246C296.22 119.246 294.725 118.836 293.471 118.016C292.217 117.196 291.252 116.067 290.577 114.628C289.902 113.189 289.564 111.545 289.564 109.697C289.564 107.816 289.91 106.156 290.601 104.717C291.3 103.27 292.273 102.141 293.519 101.329C294.773 100.509 296.236 100.1 297.907 100.1C299.21 100.1 300.383 100.341 301.428 100.823C302.473 101.305 303.329 101.98 303.996 102.848C304.663 103.717 305.077 104.729 305.238 105.887H302.393C302.176 105.043 301.693 104.295 300.946 103.644C300.206 102.985 299.21 102.656 297.956 102.656C296.846 102.656 295.874 102.945 295.038 103.524C294.21 104.094 293.563 104.902 293.097 105.947C292.639 106.984 292.41 108.202 292.41 109.6C292.41 111.031 292.635 112.277 293.085 113.338C293.543 114.399 294.186 115.223 295.014 115.81C295.85 116.396 296.83 116.69 297.956 116.69C298.695 116.69 299.366 116.561 299.969 116.304C300.572 116.047 301.082 115.677 301.5 115.195C301.918 114.712 302.216 114.134 302.393 113.458H305.238C305.077 114.552 304.679 115.536 304.044 116.412C303.417 117.28 302.585 117.972 301.549 118.486C300.52 118.992 299.322 119.246 297.956 119.246Z" fill="white"/>
<path d="M265.547 115.002L272.01 100.341H274.71L266.705 118.86H264.39L256.529 100.341H259.181L265.547 115.002ZM258.265 100.341V118.86H255.419V100.341H258.265ZM272.829 118.86V100.341H275.675V118.86H272.829Z" fill="white"/>
<path d="M242.684 119.246C241.013 119.246 239.546 118.848 238.284 118.052C237.03 117.256 236.049 116.143 235.342 114.712C234.643 113.282 234.293 111.61 234.293 109.697C234.293 107.768 234.643 106.084 235.342 104.645C236.049 103.206 237.03 102.089 238.284 101.293C239.546 100.497 241.013 100.1 242.684 100.1C244.356 100.1 245.819 100.497 247.073 101.293C248.335 102.089 249.316 103.206 250.015 104.645C250.722 106.084 251.076 107.768 251.076 109.697C251.076 111.61 250.722 113.282 250.015 114.712C249.316 116.143 248.335 117.256 247.073 118.052C245.819 118.848 244.356 119.246 242.684 119.246ZM242.684 116.69C243.954 116.69 244.999 116.364 245.819 115.713C246.639 115.062 247.246 114.206 247.64 113.145C248.034 112.084 248.231 110.935 248.231 109.697C248.231 108.459 248.034 107.305 247.64 106.236C247.246 105.167 246.639 104.303 245.819 103.644C244.999 102.985 243.954 102.656 242.684 102.656C241.414 102.656 240.37 102.985 239.55 103.644C238.73 104.303 238.123 105.167 237.729 106.236C237.335 107.305 237.138 108.459 237.138 109.697C237.138 110.935 237.335 112.084 237.729 113.145C238.123 114.206 238.73 115.062 239.55 115.713C240.37 116.364 241.414 116.69 242.684 116.69Z" fill="white"/>
<path d="M214.472 125.805V100.341H217.221V103.283H217.558C217.767 102.961 218.057 102.551 218.426 102.053C218.804 101.546 219.343 101.096 220.042 100.702C220.749 100.3 221.706 100.1 222.911 100.1C224.471 100.1 225.845 100.489 227.035 101.269C228.224 102.049 229.153 103.154 229.82 104.585C230.487 106.015 230.821 107.703 230.821 109.648C230.821 111.61 230.487 113.31 229.82 114.749C229.153 116.179 228.228 117.288 227.047 118.076C225.865 118.856 224.503 119.246 222.96 119.246C221.77 119.246 220.818 119.049 220.102 118.655C219.387 118.253 218.836 117.799 218.45 117.292C218.065 116.778 217.767 116.352 217.558 116.014H217.317V125.805H214.472ZM217.269 109.6C217.269 110.999 217.474 112.233 217.884 113.302C218.294 114.363 218.892 115.195 219.68 115.797C220.468 116.392 221.432 116.69 222.574 116.69C223.763 116.69 224.756 116.376 225.552 115.749C226.356 115.114 226.958 114.262 227.36 113.193C227.77 112.116 227.975 110.918 227.975 109.6C227.975 108.298 227.774 107.125 227.372 106.08C226.979 105.027 226.38 104.195 225.576 103.584C224.78 102.965 223.779 102.656 222.574 102.656C221.416 102.656 220.444 102.949 219.656 103.536C218.868 104.114 218.274 104.926 217.872 105.971C217.47 107.008 217.269 108.218 217.269 109.6Z" fill="white"/>
<path d="M202.475 119.246C200.691 119.246 199.152 118.852 197.857 118.064C196.571 117.268 195.579 116.159 194.879 114.736C194.188 113.306 193.843 111.642 193.843 109.745C193.843 107.848 194.188 106.176 194.879 104.729C195.579 103.274 196.551 102.141 197.797 101.329C199.051 100.509 200.514 100.1 202.186 100.1C203.15 100.1 204.103 100.26 205.043 100.582C205.984 100.903 206.84 101.426 207.611 102.149C208.383 102.865 208.998 103.813 209.456 104.995C209.914 106.176 210.143 107.631 210.143 109.359V110.565H195.868V108.105H207.25C207.25 107.06 207.041 106.128 206.623 105.308C206.213 104.488 205.626 103.841 204.862 103.367C204.107 102.893 203.215 102.656 202.186 102.656C201.052 102.656 200.072 102.937 199.244 103.5C198.424 104.054 197.793 104.778 197.351 105.67C196.909 106.562 196.688 107.518 196.688 108.539V110.179C196.688 111.578 196.929 112.763 197.411 113.736C197.902 114.7 198.581 115.436 199.449 115.942C200.317 116.44 201.326 116.69 202.475 116.69C203.223 116.69 203.898 116.585 204.501 116.376C205.112 116.159 205.638 115.838 206.08 115.412C206.522 114.978 206.864 114.439 207.105 113.796L209.854 114.568C209.565 115.5 209.078 116.32 208.395 117.027C207.712 117.727 206.868 118.273 205.863 118.667C204.858 119.053 203.729 119.246 202.475 119.246Z" fill="white"/>
<path d="M179.374 115.002L185.837 100.341H188.538L180.532 118.86H178.217L170.356 100.341H173.009L179.374 115.002ZM172.092 100.341V118.86H169.247V100.341H172.092ZM186.657 118.86V100.341H189.502V118.86H186.657Z" fill="white"/>
<path d="M151.312 114.134H154.351C154.415 114.97 154.793 115.605 155.484 116.039C156.183 116.473 157.091 116.69 158.209 116.69C159.35 116.69 160.327 116.457 161.139 115.99C161.95 115.516 162.356 114.753 162.356 113.7C162.356 113.081 162.204 112.542 161.898 112.084C161.593 111.618 161.163 111.256 160.608 110.999C160.053 110.742 159.398 110.613 158.643 110.613H155.46V108.057H158.643C159.776 108.057 160.612 107.8 161.151 107.285C161.697 106.771 161.97 106.128 161.97 105.356C161.97 104.528 161.677 103.865 161.09 103.367C160.504 102.861 159.672 102.607 158.595 102.607C157.509 102.607 156.605 102.853 155.882 103.343C155.158 103.825 154.777 104.448 154.736 105.212H151.746C151.778 104.215 152.084 103.335 152.663 102.571C153.241 101.8 154.029 101.197 155.026 100.763C156.022 100.321 157.164 100.1 158.45 100.1C159.752 100.1 160.881 100.329 161.838 100.787C162.802 101.237 163.546 101.852 164.068 102.631C164.599 103.403 164.864 104.279 164.864 105.26C164.864 106.305 164.571 107.149 163.984 107.792C163.397 108.435 162.662 108.893 161.778 109.166V109.359C162.477 109.407 163.084 109.632 163.598 110.034C164.121 110.428 164.526 110.947 164.816 111.59C165.105 112.225 165.25 112.928 165.25 113.7C165.25 114.825 164.948 115.805 164.346 116.641C163.743 117.469 162.915 118.112 161.862 118.57C160.809 119.021 159.607 119.246 158.257 119.246C156.947 119.246 155.773 119.033 154.736 118.607C153.699 118.173 152.876 117.574 152.265 116.81C151.662 116.039 151.344 115.146 151.312 114.134Z" fill="white"/>
<path d="M138.788 119.294C137.615 119.294 136.55 119.073 135.593 118.631C134.637 118.181 133.877 117.534 133.315 116.69C132.752 115.838 132.471 114.809 132.471 113.603C132.471 112.542 132.68 111.682 133.098 111.023C133.516 110.356 134.074 109.833 134.774 109.456C135.473 109.078 136.244 108.796 137.088 108.612C137.94 108.419 138.796 108.266 139.657 108.153C140.782 108.009 141.694 107.9 142.393 107.828C143.101 107.748 143.615 107.615 143.937 107.43C144.266 107.245 144.431 106.924 144.431 106.466V106.369C144.431 105.179 144.105 104.255 143.454 103.596C142.811 102.937 141.835 102.607 140.525 102.607C139.166 102.607 138.101 102.905 137.33 103.5C136.558 104.094 136.015 104.729 135.702 105.405L133.001 104.44C133.483 103.315 134.126 102.439 134.93 101.812C135.742 101.177 136.626 100.735 137.583 100.485C138.547 100.228 139.496 100.1 140.428 100.1C141.023 100.1 141.706 100.172 142.478 100.317C143.257 100.453 144.009 100.739 144.732 101.173C145.464 101.607 146.071 102.262 146.553 103.138C147.035 104.014 147.276 105.187 147.276 106.658V118.86H144.431V116.352H144.286C144.093 116.754 143.772 117.184 143.322 117.642C142.872 118.1 142.273 118.49 141.525 118.812C140.778 119.133 139.866 119.294 138.788 119.294ZM139.222 116.738C140.348 116.738 141.296 116.517 142.068 116.075C142.848 115.633 143.434 115.062 143.828 114.363C144.23 113.663 144.431 112.928 144.431 112.156V109.552C144.31 109.697 144.045 109.829 143.635 109.95C143.233 110.062 142.767 110.163 142.237 110.251C141.714 110.332 141.204 110.404 140.705 110.468C140.215 110.525 139.817 110.573 139.512 110.613C138.772 110.709 138.081 110.866 137.438 111.083C136.803 111.292 136.289 111.61 135.895 112.036C135.509 112.454 135.316 113.024 135.316 113.748C135.316 114.736 135.682 115.484 136.413 115.99C137.153 116.489 138.089 116.738 139.222 116.738Z" fill="white"/>
<path d="M112.649 125.805V100.341H115.398V103.283H115.736C115.945 102.961 116.234 102.551 116.604 102.053C116.982 101.546 117.52 101.096 118.22 100.702C118.927 100.3 119.883 100.1 121.089 100.1C122.648 100.1 124.023 100.489 125.213 101.269C126.402 102.049 127.331 103.154 127.998 104.585C128.665 106.015 128.998 107.703 128.998 109.648C128.998 111.61 128.665 113.31 127.998 114.749C127.331 116.179 126.406 117.288 125.225 118.076C124.043 118.856 122.681 119.246 121.137 119.246C119.948 119.246 118.995 119.049 118.28 118.655C117.565 118.253 117.014 117.799 116.628 117.292C116.242 116.778 115.945 116.352 115.736 116.014H115.495V125.805H112.649ZM115.447 109.6C115.447 110.999 115.652 112.233 116.061 113.302C116.471 114.363 117.07 115.195 117.858 115.797C118.646 116.392 119.61 116.69 120.752 116.69C121.941 116.69 122.934 116.376 123.73 115.749C124.533 115.114 125.136 114.262 125.538 113.193C125.948 112.116 126.153 110.918 126.153 109.6C126.153 108.298 125.952 107.125 125.55 106.08C125.156 105.027 124.557 104.195 123.754 103.584C122.958 102.965 121.957 102.656 120.752 102.656C119.594 102.656 118.622 102.949 117.834 103.536C117.046 104.114 116.451 104.926 116.049 105.971C115.648 107.008 115.447 108.218 115.447 109.6Z" fill="white"/>
<path d="M85.6874 114.664L94.6094 100.341H97.8889V118.86H95.0435V104.536L86.1697 118.86H82.842V100.341H85.6874V114.664ZM92.7286 94.1676H95.3811C95.3811 95.4697 94.931 96.5348 94.0307 97.3627C93.1305 98.1906 91.9087 98.6045 90.3655 98.6045C88.8463 98.6045 87.6366 98.1906 86.7364 97.3627C85.8442 96.5348 85.3981 95.4697 85.3981 94.1676H88.0506C88.0506 94.7946 88.2234 95.3452 88.569 95.8194C88.9227 96.2936 89.5215 96.5307 90.3655 96.5307C91.2094 96.5307 91.8123 96.2936 92.174 95.8194C92.5437 95.3452 92.7286 94.7946 92.7286 94.1676Z" fill="white"/>
<path d="M70.8455 119.246C69.0611 119.246 67.5219 118.852 66.2278 118.064C64.9417 117.268 63.9491 116.159 63.2498 114.736C62.5585 113.306 62.2129 111.642 62.2129 109.745C62.2129 107.848 62.5585 106.176 63.2498 104.729C63.9491 103.274 64.9216 102.141 66.1675 101.329C67.4214 100.509 68.8843 100.1 70.5562 100.1C71.5207 100.1 72.4732 100.26 73.4136 100.582C74.354 100.903 75.2101 101.426 75.9817 102.149C76.7533 102.865 77.3682 103.813 77.8264 104.995C78.2845 106.176 78.5136 107.631 78.5136 109.359V110.565H64.2384V108.105H75.62C75.62 107.06 75.411 106.128 74.9931 105.308C74.5831 104.488 73.9964 103.841 73.2328 103.367C72.4772 102.893 71.585 102.656 70.5562 102.656C69.4228 102.656 68.4422 102.937 67.6143 103.5C66.7945 104.054 66.1635 104.778 65.7214 105.67C65.2793 106.562 65.0583 107.518 65.0583 108.539V110.179C65.0583 111.578 65.2994 112.763 65.7817 113.736C66.272 114.7 66.9512 115.436 67.8193 115.942C68.6874 116.44 69.6961 116.69 70.8455 116.69C71.593 116.69 72.2682 116.585 72.8711 116.376C73.4819 116.159 74.0084 115.838 74.4505 115.412C74.8926 114.978 75.2342 114.439 75.4753 113.796L78.2243 114.568C77.9349 115.5 77.4486 116.32 76.7654 117.027C76.0822 117.727 75.2382 118.273 74.2335 118.667C73.2288 119.053 72.0994 119.246 70.8455 119.246Z" fill="white"/>
<path d="M45.1465 114.134H48.1848C48.2491 114.97 48.6269 115.605 49.3181 116.039C50.0174 116.473 50.9257 116.69 52.0429 116.69C53.1843 116.69 54.1609 116.457 54.9727 115.99C55.7846 115.516 56.1905 114.753 56.1905 113.7C56.1905 113.081 56.0378 112.542 55.7323 112.084C55.4269 111.618 54.9969 111.256 54.4422 110.999C53.8876 110.742 53.2326 110.613 52.477 110.613H49.294V108.057H52.477C53.6103 108.057 54.4463 107.8 54.9848 107.285C55.5314 106.771 55.8047 106.128 55.8047 105.356C55.8047 104.528 55.5113 103.865 54.9245 103.367C54.3378 102.861 53.5058 102.607 52.4288 102.607C51.3437 102.607 50.4394 102.853 49.716 103.343C48.9926 103.825 48.6108 104.448 48.5706 105.212H45.5805C45.6127 104.215 45.9181 103.335 46.4968 102.571C47.0756 101.8 47.8633 101.197 48.86 100.763C49.8567 100.321 50.998 100.1 52.2841 100.1C53.5862 100.1 54.7155 100.329 55.672 100.787C56.6366 101.237 57.3801 101.852 57.9025 102.631C58.433 103.403 58.6983 104.279 58.6983 105.26C58.6983 106.305 58.4049 107.149 57.8181 107.792C57.2314 108.435 56.4959 108.893 55.6118 109.166V109.359C56.311 109.407 56.9179 109.632 57.4323 110.034C57.9548 110.428 58.3607 110.947 58.6501 111.59C58.9394 112.225 59.0841 112.928 59.0841 113.7C59.0841 114.825 58.7827 115.805 58.1798 116.641C57.577 117.469 56.7491 118.112 55.6962 118.57C54.6432 119.021 53.4415 119.246 52.0912 119.246C50.781 119.246 49.6075 119.033 48.5706 118.607C47.5337 118.173 46.7098 117.574 46.099 116.81C45.4961 116.039 45.1786 115.146 45.1465 114.134Z" fill="white"/>
<path d="M29.2377 125.805C28.7554 125.805 28.3254 125.764 27.9476 125.684C27.5698 125.612 27.3086 125.539 27.1639 125.467L27.8873 122.959C28.5786 123.136 29.1895 123.2 29.72 123.152C30.2505 123.104 30.7207 122.867 31.1306 122.441C31.5486 122.023 31.9304 121.344 32.276 120.403L32.8065 118.956L25.9583 100.341H29.0448L34.1569 115.098H34.3498L39.4618 100.341H42.5484L34.6873 121.561C34.3337 122.517 33.8956 123.309 33.3732 123.936C32.8507 124.571 32.2438 125.041 31.5526 125.346C30.8694 125.652 30.0977 125.805 29.2377 125.805Z" fill="white"/>
<path d="M12.7319 115.002L19.1944 100.341H21.8951L13.8894 118.86H11.5745L3.71347 100.341H6.36596L12.7319 115.002ZM5.44964 100.341V118.86H2.60425V100.341H5.44964ZM20.0142 118.86V100.341H22.8596V118.86H20.0142Z" fill="white"/>
</svg>
