<svg width="415" height="81" viewBox="0 0 415 81" fill="none" xmlns="http://www.w3.org/2000/svg">
<path d="M387.731 62.551V29.5777H374.879V18.2974H414.877V29.5777H402.069V62.551H387.731Z" fill="white"/>
<path d="M355.185 62.551L341.528 39.4263L355.615 18.2974H370.521L356.649 38.6454L371.9 62.551H355.185ZM326.795 62.551V18.2974H340.925V34.22H354.323V45.5004H340.925V62.551H326.795Z" fill="white"/>
<path d="M288.697 63.827C285.75 63.827 283.106 63.2637 280.766 62.1371C278.426 60.9815 276.577 59.3493 275.219 57.2405C273.861 55.1028 273.182 52.5461 273.182 49.5707C273.182 47.0285 273.803 44.7752 275.045 42.8108C276.317 40.8464 278.223 39.2287 280.766 37.9576C283.309 36.6865 286.501 35.8343 290.344 35.401C294.216 34.9388 298.738 34.9388 303.909 35.401L304.039 44.2408C301.295 43.7497 298.81 43.5041 296.585 43.5041C294.389 43.4752 292.511 43.663 290.951 44.0674C289.42 44.443 288.235 45.0352 287.397 45.8441C286.559 46.6529 286.14 47.6496 286.14 48.834C286.14 50.3651 286.718 51.5351 287.874 52.3439C289.058 53.1528 290.633 53.5572 292.598 53.5572C294.302 53.5572 295.834 53.2539 297.192 52.6473C298.579 52.0406 299.677 51.1595 300.486 50.004C301.323 48.8196 301.742 47.3752 301.742 45.6707V35.5743C301.742 33.9855 301.41 32.5844 300.746 31.3711C300.081 30.1578 299.026 29.2189 297.582 28.5545C296.166 27.8611 294.274 27.5145 291.904 27.5145C289.622 27.5145 287.354 27.8611 285.1 28.5545C282.846 29.2189 280.824 30.23 279.033 31.5877L275.392 21.8379C278.252 20.0469 281.315 18.7325 284.58 17.8947C287.845 17.028 291.052 16.5947 294.201 16.5947C298.362 16.5947 302.017 17.2592 305.166 18.588C308.344 19.9169 310.829 21.9679 312.621 24.7412C314.412 27.5145 315.308 31.0677 315.308 35.401V62.527H303.043V57.8471C301.627 59.7538 299.677 61.2271 297.192 62.267C294.707 63.307 291.875 63.827 288.697 63.827Z" fill="white"/>
<path d="M175.761 63.8273C170.94 63.8273 166.708 62.8594 163.063 60.9235C159.419 58.9588 156.578 56.2284 154.541 52.7323C152.503 49.2074 151.484 45.0901 151.484 40.3806C151.484 36.9712 152.073 33.8363 153.249 30.9759C154.454 28.1154 156.119 25.6451 158.242 23.5648C160.395 21.4845 162.92 19.8809 165.818 18.7541C168.745 17.5984 171.959 17.0205 175.46 17.0205C179.305 17.0205 182.735 17.7139 185.748 19.1008C188.761 20.4588 191.243 22.3657 193.194 24.8216C195.174 27.2487 196.538 30.1235 197.284 33.4462C198.03 36.74 198.058 40.3228 197.37 44.1944H164.398C164.426 45.928 164.943 47.4449 165.947 48.7451C166.952 50.0453 168.329 51.071 170.08 51.8222C171.83 52.5445 173.867 52.9057 176.192 52.9057C178.775 52.9057 181.228 52.5734 183.552 51.9089C185.877 51.2155 188.101 50.1609 190.224 48.7451L194.658 58.3665C193.309 59.4066 191.559 60.3457 189.407 61.1836C187.283 61.9926 185.016 62.6282 182.606 63.0905C180.224 63.5817 177.942 63.8273 175.761 63.8273ZM165.259 34.6164H183.94C183.883 32.3916 183.065 30.6147 181.486 29.2856C179.908 27.9565 177.77 27.292 175.073 27.292C172.347 27.292 170.08 27.9565 168.272 29.2856C166.493 30.6147 165.488 32.3916 165.259 34.6164Z" fill="white"/>
<path d="M119.944 62.551V29.5777H107.229V18.2974H146.802V29.5777H134.13V62.551H119.944Z" fill="white"/>
<path d="M53.1895 80.8479V18.3231H65.5376V23.4033C67.1957 21.4638 69.3046 19.9152 71.8644 18.7573C74.4533 17.5994 77.4495 17.0205 80.8528 17.0205C85.0998 17.0205 88.8813 17.9902 92.1975 19.9297C95.5427 21.8691 98.1752 24.6045 100.095 28.136C102.015 31.6675 102.975 35.778 102.975 40.4673C102.975 43.7672 102.422 46.8501 101.317 49.7158C100.24 52.5526 98.6988 55.042 96.6917 57.184C94.6845 59.2971 92.3138 60.9471 89.5795 62.1339C86.8742 63.3207 83.8781 63.9141 80.591 63.9141C77.9731 63.9141 75.5587 63.4944 73.3479 62.6549C71.1663 61.8155 69.2028 60.6287 67.4575 59.0945V80.8479H53.1895ZM78.1912 51.6697C80.2565 51.6697 82.1037 51.221 83.7326 50.3237C85.3616 49.3974 86.6415 48.0948 87.5723 46.4159C88.5032 44.737 88.9686 42.7541 88.9686 40.4673C88.9686 38.1516 88.4886 36.1687 87.5287 34.5188C86.5979 32.8399 85.318 31.5517 83.689 30.6544C82.0891 29.7281 80.2565 29.265 78.1912 29.265C76.155 29.265 74.3224 29.7281 72.6935 30.6544C71.0645 31.5517 69.7846 32.8399 68.8537 34.5188C67.9229 36.1687 67.4575 38.1516 67.4575 40.4673C67.4575 42.7541 67.9229 44.737 68.8537 46.4159C69.7846 48.0948 71.0499 49.3974 72.6498 50.3237C74.2788 51.221 76.1259 51.6697 78.1912 51.6697Z" fill="white"/>
<path d="M15.5156 63.827C12.5685 63.827 9.92477 63.2637 7.58443 62.1371C5.24409 60.9815 3.39494 59.3493 2.03696 57.2405C0.678987 55.1028 0 52.5461 0 49.5707C0 47.0285 0.621201 44.7752 1.8636 42.8108C3.1349 40.8464 5.04184 39.2287 7.58443 37.9576C10.127 36.6865 13.3197 35.8343 17.1625 35.401C21.0342 34.9388 25.5559 34.9388 30.7278 35.401L30.8578 44.2408C28.113 43.7497 25.6282 43.5041 23.4034 43.5041C21.2075 43.4752 19.3295 43.663 17.7692 44.0674C16.2379 44.443 15.0533 45.0352 14.2154 45.8441C13.3775 46.6529 12.9585 47.6496 12.9585 48.834C12.9585 50.3651 13.5364 51.5351 14.6921 52.3439C15.8767 53.1528 17.4514 53.5572 19.4161 53.5572C21.1208 53.5572 22.6522 53.2539 24.0101 52.6473C25.397 52.0406 26.4949 51.1595 27.3039 50.004C28.1418 48.8196 28.5608 47.3752 28.5608 45.6707V35.5743C28.5608 33.9855 28.2285 32.5844 27.564 31.3711C26.8994 30.1578 25.8448 29.2189 24.4002 28.5545C22.9844 27.8611 21.0919 27.5145 18.7227 27.5145C16.4402 27.5145 14.172 27.8611 11.9184 28.5545C9.66473 29.2189 7.64222 30.23 5.85085 31.5877L2.21032 21.8379C5.07073 20.0469 8.1334 18.7325 11.3983 17.8947C14.6632 17.028 17.8704 16.5947 21.0197 16.5947C25.1803 16.5947 28.8353 17.2592 31.9846 18.588C35.1629 19.9169 37.6477 21.9679 39.439 24.7412C41.2304 27.5145 42.1261 31.0677 42.1261 35.401V62.527H29.861V57.8471C28.4452 59.7538 26.4949 61.2271 24.0101 62.267C21.5253 63.307 18.6938 63.827 15.5156 63.827Z" fill="white"/>
<path fill-rule="evenodd" clip-rule="evenodd" d="M242.766 17.4648C246.751 17.8804 250.3 18.6786 253.409 19.8643C258.197 21.6609 261.83 24.2982 264.311 27.7754C266.82 31.2237 268.075 35.4397 268.075 40.4238C268.075 44.162 267.325 47.4802 265.825 50.3779C264.354 53.2757 262.22 55.7102 259.422 57.6807C257.408 59.0991 255.072 60.275 252.415 61.2129L246.493 50.9541C249.156 50.0846 251.101 48.7784 252.327 47.0312C253.567 45.2636 254.188 43.0608 254.188 40.4238C254.187 37.7581 253.553 35.556 252.284 33.8174C251.044 32.0497 249.053 30.7307 246.313 29.8613C245.259 29.5121 244.077 29.231 242.766 29.0176V44.498L242.76 44.4883V80.8477H228.575V63.3701C224.674 62.951 221.185 62.1571 218.106 60.9834C213.319 59.1578 209.669 56.5066 207.16 53.0293C204.651 49.552 203.396 45.35 203.396 40.4238C203.397 35.4687 204.68 31.2527 207.247 27.7754C209.814 24.2981 213.52 21.6609 218.365 19.8643C221.378 18.7291 224.782 17.9469 228.575 17.5176V0H242.766V17.4648ZM228.575 29.0098C227.249 29.2242 226.052 29.5077 224.984 29.8613C222.302 30.7307 220.327 32.0498 219.058 33.8174C217.818 35.556 217.197 37.7581 217.197 40.4238C217.197 43.0608 217.817 45.2636 219.058 47.0312C220.327 48.7988 222.317 50.117 225.028 50.9863C226.086 51.3219 227.268 51.5918 228.575 51.7979V29.0098Z" fill="white"/>
<path d="M250.345 80.8599C250.729 77.2846 251.43 74.0556 252.448 71.1714L262.787 77.1392C262.768 77.1968 262.747 77.2546 262.729 77.313C262.393 78.3706 262.124 79.5531 261.918 80.8599H250.345Z" fill="white"/>
</svg>
