<svg width="1727" height="471" viewBox="0 0 1727 471" fill="none" xmlns="http://www.w3.org/2000/svg">
<path d="M1409.36 98.8158H1508.89V290.719H1511.76L1642.08 98.8158H1726.57V465.437H1627.04V272.818H1624.89L1492.42 465.437H1409.36V98.8158ZM1604.13 0H1666.42C1666.3 23.2719 1657.41 41.8893 1639.75 55.8524C1622.09 69.6962 1598.28 76.6181 1568.32 76.6181C1538.13 76.6181 1514.2 69.6962 1496.54 55.8524C1478.88 41.8893 1470.1 23.2719 1470.22 0H1531.81C1531.69 7.51861 1534.37 14.4405 1539.86 20.7656C1545.47 26.9715 1554.96 30.0744 1568.32 30.0744C1581.09 30.0744 1590.22 27.0312 1595.71 20.9447C1601.2 14.8582 1604.01 7.87662 1604.13 0Z" fill="white"/>
<path d="M1107.89 465.437V98.8154H1372.12V179.014H1207.43V242.027H1358.51V322.225H1207.43V385.238H1371.4V465.437H1107.89Z" fill="white"/>
<path d="M926.774 470.449C897.893 470.449 872.234 465.496 849.798 455.59C827.481 445.566 809.937 431.782 797.167 414.238C784.398 396.695 777.953 376.526 777.834 353.731H878.082C878.201 360.773 880.349 367.098 884.526 372.707C888.823 378.197 894.671 382.493 902.07 385.596C909.469 388.699 917.942 390.25 927.49 390.25C936.679 390.25 944.795 388.639 951.836 385.417C958.877 382.075 964.367 377.481 968.305 371.633C972.243 365.785 974.153 359.102 974.034 351.583C974.153 344.184 971.885 337.62 967.231 331.892C962.696 326.163 956.311 321.688 948.076 318.466C939.842 315.243 930.354 313.632 919.613 313.632H882.378V244.891H919.613C929.519 244.891 938.231 243.28 945.749 240.057C953.387 236.835 959.295 232.36 963.472 226.631C967.768 220.903 969.857 214.339 969.737 206.94C969.857 199.779 968.126 193.454 964.546 187.964C960.965 182.474 955.953 178.178 949.509 175.075C943.183 171.972 935.844 170.421 927.49 170.421C918.42 170.421 910.304 172.032 903.144 175.254C896.103 178.476 890.553 182.952 886.496 188.68C882.438 194.409 880.349 200.973 880.23 208.372H784.995C785.114 185.935 791.26 166.124 803.433 148.939C815.725 131.754 832.553 118.268 853.915 108.482C875.277 98.6958 899.802 93.8027 927.49 93.8027C954.581 93.8027 978.509 98.3974 999.275 107.587C1020.16 116.776 1036.45 129.427 1048.15 145.538C1059.96 161.53 1065.81 179.849 1065.69 200.495C1065.93 221.022 1058.89 237.849 1044.57 250.977C1030.36 264.105 1012.34 271.862 990.503 274.249V277.113C1020.1 280.336 1042.36 289.406 1057.28 304.323C1072.19 319.122 1079.53 337.739 1079.29 360.176C1079.41 381.658 1072.97 400.693 1059.96 417.281C1047.07 433.87 1029.11 446.878 1006.08 456.306C983.163 465.735 956.729 470.449 926.774 470.449Z" fill="white"/>
<path d="M518.51 470.449V393.115H536.411C546.913 393.115 555.208 392.279 561.294 390.609C567.5 388.818 572.274 385.715 575.615 381.3C579.076 376.765 582 370.44 584.387 362.324L587.967 351.583L450.484 98.8154H552.164L628.782 247.755L687.499 98.8154H787.747L661.721 385.238C654.799 400.275 646.565 414.298 637.017 427.306C627.47 440.195 615.595 450.638 601.393 458.634C587.192 466.511 569.588 470.449 548.584 470.449H518.51Z" fill="white"/>
<path d="M0 98.8154H123.878L209.089 306.472H213.385L298.596 98.8154H422.473V465.437H325.09V253.484H322.226L240.595 462.572H181.878L100.248 252.052H97.3837V465.437H0V98.8154Z" fill="white"/>
</svg>
