<svg width="815" height="313" viewBox="0 0 815 313" fill="none" xmlns="http://www.w3.org/2000/svg">
<path d="M664.908 310.657C661.909 310.657 660.41 309.033 660.41 305.785V70.0313C660.41 66.7829 661.909 65.1588 664.908 65.1588H708.76C711.509 65.1588 712.883 66.7829 712.883 70.0313V144.618C712.883 149.615 712.758 156.112 712.508 164.108C712.258 171.854 711.884 179.975 711.384 188.47C710.884 196.716 710.384 204.712 709.885 212.458C709.385 220.204 708.885 226.701 708.385 231.948H709.135C710.634 225.951 712.134 219.454 713.633 212.458C715.382 205.462 717.756 196.591 720.754 185.847C724.002 175.102 727.875 161.359 732.373 144.618L754.862 68.532C755.111 66.2832 756.486 65.1588 758.984 65.1588H809.958C812.707 65.1588 814.081 66.7829 814.081 70.0313V305.785C814.081 309.033 812.582 310.657 809.583 310.657H766.106C763.107 310.657 761.608 309.033 761.608 305.785V237.945C761.608 232.198 761.733 225.326 761.983 217.33C762.233 209.335 762.608 200.964 763.107 192.218C763.607 183.223 764.107 174.727 764.607 166.731C765.356 158.736 765.981 151.864 766.481 146.117H765.731C764.232 152.364 762.483 159.235 760.484 166.731C758.735 174.228 756.236 183.598 752.987 194.842C749.989 206.086 745.866 220.454 740.619 237.945L720.004 307.284C719.255 309.533 717.631 310.657 715.132 310.657H664.908ZM737.246 47.9176C728 47.9176 720.129 46.4184 713.633 43.4199C707.386 40.4215 702.389 37.1732 698.64 33.675C697.641 32.6755 697.141 31.0513 697.141 28.8025V3.6904C697.141 -0.307537 698.765 -1.05715 702.014 1.44157C706.761 4.6899 711.884 7.31355 717.381 9.31252C723.128 11.3115 729.749 12.311 737.246 12.311C744.992 12.311 751.613 11.3115 757.11 9.31252C762.857 7.31355 767.98 4.6899 772.477 1.44157C773.727 0.19221 774.851 -0.182602 775.851 0.317134C776.85 0.816885 777.35 1.94131 777.35 3.6904V28.8025C777.35 31.0513 776.85 32.6755 775.851 33.675C771.853 37.4231 766.73 40.7963 760.484 43.7948C754.237 46.5434 746.491 47.9176 737.246 47.9176Z" fill="white"/>
<path d="M527.904 310.657C525.156 310.657 523.781 309.033 523.781 305.784V70.0307C523.781 66.7824 525.156 65.1582 527.904 65.1582H644.469C647.218 65.1582 648.592 66.7824 648.592 70.0307V109.385C648.592 112.634 647.218 114.258 644.469 114.258H579.253V163.358H638.097C640.846 163.358 642.22 164.982 642.22 168.23V205.336C642.22 208.584 640.846 210.209 638.097 210.209H579.253V261.557H644.469C647.218 261.557 648.592 263.181 648.592 266.43V305.784C648.592 309.033 647.218 310.657 644.469 310.657H527.904Z" fill="white"/>
<path d="M438.085 312.906C419.845 312.906 405.227 309.908 394.233 303.911C383.488 297.664 376.117 289.044 372.119 278.049C368.121 267.055 366.872 254.312 368.371 239.819C368.621 237.32 369.246 235.821 370.245 235.321C371.495 234.572 372.994 234.197 374.743 234.197H414.098C417.096 234.197 418.47 235.696 418.22 238.695C417.221 247.94 418.345 255.061 421.594 260.059C424.842 265.056 430.464 267.555 438.46 267.555C446.206 267.555 451.703 265.181 454.952 260.433C458.2 255.436 459.824 247.565 459.824 236.821C459.824 226.826 458.075 219.704 454.577 215.457C451.328 211.209 444.707 209.085 434.712 209.085H419.72C416.971 209.085 415.597 207.461 415.597 204.212V170.48C415.597 167.231 416.971 165.607 419.72 165.607H430.214C439.46 165.607 445.706 163.109 448.955 158.111C452.203 153.114 453.827 145.493 453.827 135.248C453.827 126.003 452.578 119.256 450.079 115.008C447.58 110.511 442.583 108.262 435.087 108.262C427.841 108.262 422.968 110.511 420.469 115.008C417.971 119.506 417.221 125.878 418.22 134.123C418.22 137.622 416.846 139.371 414.098 139.371H373.244C371.744 139.371 370.62 139.121 369.87 138.621C369.121 138.121 368.621 136.747 368.371 134.498C366.372 112.26 371.12 94.7688 382.614 82.0253C394.358 69.2819 413.223 62.9102 439.21 62.9102C461.698 62.9102 478.689 68.1574 490.183 78.652C501.927 89.1466 507.799 105.138 507.799 126.627C507.799 139.871 505.301 151.365 500.303 161.11C495.556 170.855 489.184 178.101 481.188 182.848V183.598C490.933 187.346 498.929 193.968 505.176 203.463C511.423 212.958 514.546 224.702 514.546 238.695C514.546 263.182 507.799 281.673 494.306 294.166C481.063 306.66 462.323 312.906 438.085 312.906Z" fill="white"/>
<path d="M228.269 310.657C226.77 310.657 225.646 310.157 224.896 309.158C224.146 307.908 224.146 306.409 224.896 304.66L252.257 229.699L199.409 71.1551C198.16 67.1572 199.284 65.1582 202.782 65.1582H257.129C259.628 65.1582 261.003 66.2826 261.252 68.5315L274.371 130C276.12 136.996 277.494 143.743 278.493 150.239C279.743 156.486 280.867 163.233 281.867 170.479H282.616C284.116 163.233 285.365 156.486 286.364 150.239C287.364 143.743 288.738 136.996 290.487 130L303.98 68.5315C304.23 66.2826 305.605 65.1582 308.103 65.1582H362.825C366.323 65.1582 367.448 67.0322 366.198 70.7803L285.99 307.284C285.49 309.532 283.866 310.657 281.117 310.657H228.269Z" fill="white"/>
<path d="M4.49768 310.657C1.49923 310.657 0 309.158 0 306.159L3.37326 70.0307C3.37326 66.7824 4.74756 65.1582 7.49614 65.1582H61.4684C64.4668 65.1582 66.091 66.2826 66.3409 68.5315L98.9491 183.597L131.182 68.5315C131.932 66.2826 133.681 65.1582 136.43 65.1582H190.402C193.151 65.1582 194.525 66.7824 194.525 70.0307L197.898 306.159C197.898 309.158 196.399 310.657 193.4 310.657H147.299C144.551 310.657 143.176 309.033 143.176 305.784L142.427 224.451C142.177 209.209 142.427 196.091 143.176 185.096C143.926 174.102 144.8 164.107 145.8 155.112H145.05C142.801 162.858 140.428 170.854 137.929 179.1C135.43 187.345 132.807 195.341 130.058 203.087L103.447 279.548C102.697 281.547 101.448 282.546 99.6987 282.546H97.8247C96.3254 282.546 95.201 281.547 94.4514 279.548L67.8401 203.087C64.8416 195.091 62.093 187.095 59.5943 179.1C57.0956 170.854 54.8468 162.858 52.8478 155.112H52.0982C53.0977 164.107 53.8473 174.102 54.347 185.096C55.0966 196.091 55.4715 209.209 55.4715 224.451L54.7218 305.784C54.7218 309.033 53.3475 310.657 50.599 310.657H4.49768Z" fill="white"/>
</svg>
