<svg width="821" height="34" viewBox="0 0 821 34" fill="none" xmlns="http://www.w3.org/2000/svg">
<path d="M811.061 23.8474V5.13965H801.8V8.17271C801.8 10.2565 801.676 12.1396 801.429 13.8221C801.182 15.5045 800.743 16.9863 800.11 18.2675C799.477 19.5332 798.589 20.5828 797.447 21.4163C796.32 22.2498 794.877 22.8595 793.117 23.2454L791.867 19.7956C793.334 19.4406 794.437 18.7769 795.178 17.8044C795.919 16.832 796.413 15.5509 796.66 13.961C796.922 12.3557 797.053 10.4263 797.053 8.17271V0.925781H816.155V23.8474H811.061ZM791.867 30.7933V19.7956L795.016 20.1197L795.803 19.6335H820.762V30.7933H816.109V23.8474H796.521V30.7933H791.867Z" fill="white"/>
<path d="M749.545 24.5422C747.152 24.5422 745.015 23.9943 743.131 22.8984C741.264 21.787 739.797 20.3129 738.732 18.4761C737.667 16.6239 737.135 14.5941 737.135 12.3868C737.135 10.7507 737.436 9.20715 738.038 7.75622C738.655 6.28985 739.52 4.99328 740.631 3.86649C741.758 2.7397 743.077 1.85217 744.59 1.20388C746.103 0.55559 747.762 0.231445 749.568 0.231445C751.96 0.231445 754.091 0.787121 755.958 1.89847C757.841 2.99439 759.316 4.46847 760.381 6.32072C761.446 8.15754 761.978 10.1796 761.978 12.3868C761.978 14.0076 761.669 15.5511 761.052 17.0175C760.45 18.4838 759.593 19.7804 758.482 20.9072C757.371 22.034 756.059 22.9215 754.546 23.5698C753.033 24.2181 751.366 24.5422 749.545 24.5422ZM749.545 20.0274C750.965 20.0274 752.223 19.7187 753.319 19.1013C754.43 18.4684 755.302 17.5809 755.935 16.4386C756.568 15.2964 756.884 13.9458 756.884 12.3868C756.884 10.8279 756.568 9.47727 755.935 8.33505C755.302 7.17739 754.43 6.28985 753.319 5.67243C752.223 5.05502 750.965 4.74631 749.545 4.74631C748.125 4.74631 746.859 5.05502 745.748 5.67243C744.652 6.28985 743.787 7.17739 743.155 8.33505C742.537 9.47727 742.228 10.8279 742.228 12.3868C742.228 13.9458 742.545 15.2964 743.178 16.4386C743.811 17.5809 744.675 18.4684 745.771 19.1013C746.882 19.7187 748.14 20.0274 749.545 20.0274Z" fill="white"/>
<path d="M681.619 33.572V0.926039H686.203V4.14433C687.114 2.98667 688.28 2.04511 689.7 1.31964C691.12 0.594177 692.872 0.231445 694.955 0.231445C697.194 0.231445 699.177 0.763966 700.906 1.82901C702.65 2.87862 704.008 4.32183 704.981 6.15865C705.953 7.98003 706.439 10.0561 706.439 12.3868C706.439 14.0693 706.162 15.6514 705.606 17.1332C705.05 18.5996 704.255 19.8885 703.221 20.9998C702.202 22.1112 700.983 22.9833 699.563 23.6161C698.158 24.2335 696.599 24.5422 694.886 24.5422C693.095 24.5422 691.521 24.2181 690.163 23.5698C688.804 22.9215 687.647 22.0494 686.69 20.9535V33.572H681.619ZM694.029 20.0274C695.449 20.0274 696.707 19.7187 697.803 19.1013C698.915 18.4684 699.779 17.5809 700.396 16.4386C701.029 15.2964 701.346 13.9458 701.346 12.3868C701.346 10.8279 701.029 9.47727 700.396 8.33505C699.764 7.17739 698.891 6.28985 697.78 5.67243C696.684 5.05502 695.434 4.74631 694.029 4.74631C692.609 4.74631 691.343 5.05502 690.232 5.67243C689.136 6.28985 688.272 7.17739 687.639 8.33505C687.006 9.47727 686.69 10.8279 686.69 12.3868C686.69 13.9458 687.006 15.2964 687.639 16.4386C688.272 17.5809 689.136 18.4684 690.232 19.1013C691.343 19.7187 692.609 20.0274 694.029 20.0274Z" fill="white"/>
<path d="M636.748 24.5422C634.355 24.5422 632.218 23.9943 630.335 22.8984C628.467 21.787 627.001 20.3129 625.935 18.4761C624.87 16.6239 624.338 14.5941 624.338 12.3868C624.338 10.7507 624.639 9.20715 625.241 7.75622C625.858 6.28985 626.723 4.99328 627.834 3.86649C628.961 2.7397 630.281 1.85217 631.793 1.20388C633.306 0.55559 634.965 0.231445 636.771 0.231445C639.164 0.231445 641.294 0.787121 643.161 1.89847C645.044 2.99439 646.519 4.46847 647.584 6.32072C648.649 8.15754 649.181 10.1796 649.181 12.3868C649.181 14.0076 648.873 15.5511 648.255 17.0175C647.653 18.4838 646.796 19.7804 645.685 20.9072C644.574 22.034 643.262 22.9215 641.749 23.5698C640.236 24.2181 638.569 24.5422 636.748 24.5422ZM636.748 20.0274C638.168 20.0274 639.426 19.7187 640.522 19.1013C641.633 18.4684 642.505 17.5809 643.138 16.4386C643.771 15.2964 644.088 13.9458 644.088 12.3868C644.088 10.8279 643.771 9.47727 643.138 8.33505C642.505 7.17739 641.633 6.28985 640.522 5.67243C639.426 5.05502 638.168 4.74631 636.748 4.74631C635.328 4.74631 634.062 5.05502 632.951 5.67243C631.855 6.28985 630.991 7.17739 630.358 8.33505C629.74 9.47727 629.432 10.8279 629.432 12.3868C629.432 13.9458 629.748 15.2964 630.381 16.4386C631.014 17.5809 631.878 18.4684 632.974 19.1013C634.085 19.7187 635.343 20.0274 636.748 20.0274Z" fill="white"/>
<path d="M579.18 23.8474V0.925781H594.276V5.13965H584.273V23.8474H579.18Z" fill="white"/>
<path d="M499.821 24.5422C497.413 24.5422 495.268 24.0174 493.385 22.9678C491.502 21.9028 490.02 20.4596 488.939 18.6382C487.874 16.8014 487.342 14.7176 487.342 12.3868C487.342 10.6272 487.658 9.0142 488.291 7.54784C488.924 6.06604 489.819 4.77718 490.977 3.68126C492.134 2.58535 493.493 1.7364 495.052 1.13442C496.626 0.532436 498.332 0.231445 500.169 0.231445C501.712 0.231445 503.14 0.439823 504.452 0.856581C505.779 1.2579 506.999 1.88304 508.11 2.73199L505.656 6.62171C504.946 5.98886 504.128 5.51808 503.202 5.20937C502.291 4.90066 501.319 4.74631 500.284 4.74631C498.679 4.74631 497.298 5.0473 496.14 5.64928C494.982 6.25126 494.079 7.12336 493.431 8.26558C492.798 9.39237 492.482 10.7584 492.482 12.3637C492.482 14.7562 493.176 16.6316 494.566 17.9899C495.97 19.3482 497.876 20.0274 500.284 20.0274C501.427 20.0274 502.507 19.819 503.526 19.4022C504.545 18.9701 505.394 18.4067 506.073 17.7121L508.504 21.5786C507.284 22.5048 505.926 23.2302 504.429 23.755C502.932 24.2798 501.396 24.5422 499.821 24.5422Z" fill="white"/>
<path d="M389.312 23.8474V0.925781H393.874L404.154 15.7901L401.954 15.8364L411.725 0.925781H416.24V23.8474H411.609L411.678 6.89929L412.628 7.31605L404.432 19.2862H401.144L392.577 7.2929L393.526 6.87614L393.596 23.8474H389.312Z" fill="white"/>
<path d="M344.441 24.5422C342.049 24.5422 339.911 23.9943 338.028 22.8984C336.16 21.787 334.694 20.3129 333.629 18.4761C332.564 16.6239 332.031 14.5941 332.031 12.3868C332.031 10.7507 332.332 9.20715 332.934 7.75622C333.552 6.28985 334.416 4.99328 335.527 3.86649C336.654 2.7397 337.974 1.85217 339.487 1.20388C340.999 0.55559 342.659 0.231445 344.465 0.231445C346.857 0.231445 348.987 0.787121 350.855 1.89847C352.738 2.99439 354.212 4.46847 355.277 6.32072C356.342 8.15754 356.875 10.1796 356.875 12.3868C356.875 14.0076 356.566 15.5511 355.948 17.0175C355.346 18.4838 354.49 19.7804 353.378 20.9072C352.267 22.034 350.955 22.9215 349.442 23.5698C347.93 24.2181 346.263 24.5422 344.441 24.5422ZM344.441 20.0274C345.861 20.0274 347.119 19.7187 348.215 19.1013C349.327 18.4684 350.199 17.5809 350.832 16.4386C351.464 15.2964 351.781 13.9458 351.781 12.3868C351.781 10.8279 351.464 9.47727 350.832 8.33505C350.199 7.17739 349.327 6.28985 348.215 5.67243C347.119 5.05502 345.861 4.74631 344.441 4.74631C343.021 4.74631 341.756 5.05502 340.644 5.67243C339.548 6.28985 338.684 7.17739 338.051 8.33505C337.434 9.47727 337.125 10.8279 337.125 12.3868C337.125 13.9458 337.441 15.2964 338.074 16.4386C338.707 17.5809 339.571 18.4684 340.667 19.1013C341.779 19.7187 343.037 20.0274 344.441 20.0274Z" fill="white"/>
<path d="M276.518 33.572V0.926039H281.102V4.14433C282.013 2.98667 283.178 2.04511 284.598 1.31964C286.018 0.594177 287.77 0.231445 289.854 0.231445C292.092 0.231445 294.075 0.763966 295.804 1.82901C297.548 2.87862 298.907 4.32183 299.879 6.15865C300.852 7.98003 301.338 10.0561 301.338 12.3868C301.338 14.0693 301.06 15.6514 300.504 17.1332C299.949 18.5996 299.154 19.8885 298.119 20.9998C297.101 22.1112 295.881 22.9833 294.461 23.6161C293.057 24.2335 291.498 24.5422 289.784 24.5422C287.994 24.5422 286.419 24.2181 285.061 23.5698C283.703 22.9215 282.545 22.0494 281.588 20.9535V33.572H276.518ZM288.928 20.0274C290.348 20.0274 291.606 19.7187 292.702 19.1013C293.813 18.4684 294.677 17.5809 295.295 16.4386C295.928 15.2964 296.244 13.9458 296.244 12.3868C296.244 10.8279 295.928 9.47727 295.295 8.33505C294.662 7.17739 293.79 6.28985 292.678 5.67243C291.583 5.05502 290.332 4.74631 288.928 4.74631C287.508 4.74631 286.242 5.05502 285.131 5.67243C284.035 6.28985 283.17 7.17739 282.537 8.33505C281.905 9.47727 281.588 10.8279 281.588 12.3868C281.588 13.9458 281.905 15.2964 282.537 16.4386C283.17 17.5809 284.035 18.4684 285.131 19.1013C286.242 19.7187 287.508 20.0274 288.928 20.0274Z" fill="white"/>
<path d="M233.162 24.5422C230.692 24.5422 228.523 24.0406 226.656 23.0373C224.788 22.0186 223.329 20.5985 222.28 18.7771C221.246 16.9557 220.729 14.8411 220.729 12.4332C220.729 10.6735 221.03 9.05279 221.631 7.57099C222.233 6.07376 223.082 4.77718 224.178 3.68126C225.274 2.58535 226.555 1.7364 228.022 1.13442C229.504 0.532436 231.117 0.231445 232.861 0.231445C234.759 0.231445 236.449 0.571024 237.931 1.25018C239.413 1.91391 240.64 2.84775 241.613 4.05171C242.601 5.25568 243.295 6.66802 243.696 8.28874C244.113 9.89403 244.183 11.6382 243.905 13.5213H225.614C225.583 14.8951 225.884 16.0991 226.517 17.1332C227.15 18.152 228.053 18.9469 229.226 19.518C230.414 20.0891 231.811 20.3747 233.416 20.3747C234.713 20.3747 235.963 20.1817 237.167 19.7959C238.387 19.3945 239.49 18.808 240.478 18.0362L242.446 21.6944C241.705 22.2964 240.81 22.8135 239.76 23.2457C238.711 23.6624 237.615 23.9789 236.473 24.1949C235.33 24.4265 234.227 24.5422 233.162 24.5422ZM225.915 9.77054H238.904C238.857 8.04177 238.302 6.68345 237.237 5.69559C236.187 4.70772 234.69 4.21379 232.745 4.21379C230.862 4.21379 229.295 4.70772 228.045 5.69559C226.81 6.68345 226.1 8.04177 225.915 9.77054Z" fill="white"/>
<path d="M161.369 23.8474V0.925781H165.93L176.21 15.7901L174.011 15.8364L183.781 0.925781H188.296V23.8474H183.666L183.735 6.89929L184.684 7.31605L176.488 19.2862H173.2L164.634 7.2929L165.583 6.87614L165.652 23.8474H161.369Z" fill="white"/>
<path d="M117.861 24.4032C116.58 24.4032 115.345 24.3028 114.156 24.1022C112.968 23.9169 111.849 23.6237 110.799 23.2224C109.749 22.8056 108.8 22.2576 107.951 21.5785L110.174 18.1287C111.146 18.9467 112.296 19.541 113.624 19.9115C114.951 20.2665 116.302 20.444 117.675 20.444C119.543 20.444 121.017 20.1739 122.098 19.6336C123.178 19.0779 123.718 18.1673 123.718 16.9015C123.718 15.7902 123.147 14.9953 122.005 14.5168C120.878 14.0383 119.234 13.799 117.074 13.799H112.86V9.95561H116.935C118.849 9.95561 120.323 9.73951 121.357 9.30732C122.391 8.85969 122.908 8.10335 122.908 7.03831C122.908 6.40546 122.684 5.88065 122.237 5.4639C121.804 5.04714 121.187 4.73071 120.384 4.51462C119.597 4.29852 118.671 4.19047 117.606 4.19047C116.294 4.19047 115.028 4.38342 113.809 4.7693C112.59 5.15519 111.524 5.74945 110.614 6.55209L108.715 3.14858C109.888 2.17615 111.308 1.43525 112.975 0.925879C114.642 0.401074 116.325 0.138672 118.023 0.138672C119.999 0.138672 121.696 0.38564 123.116 0.879574C124.537 1.37351 125.632 2.08354 126.404 3.00966C127.176 3.93579 127.562 5.05486 127.562 6.36687C127.562 7.53996 127.184 8.5587 126.427 9.42308C125.686 10.2875 124.606 10.9126 123.186 11.2985C124.915 11.6844 126.227 12.3635 127.122 13.336C128.033 14.3084 128.488 15.5278 128.488 16.9942C128.488 18.5377 128.048 19.8651 127.168 20.9765C126.304 22.0724 125.069 22.9214 123.464 23.5233C121.874 24.1099 120.006 24.4032 117.861 24.4032Z" fill="white"/>
<path d="M63.6243 24.5423C62.0344 24.5423 60.6375 24.2491 59.4336 23.6625C58.2296 23.0605 57.288 22.2193 56.6089 21.1388C55.9451 20.0429 55.6133 18.754 55.6133 17.2722C55.6133 16.022 55.9297 14.8952 56.5626 13.8919C57.1954 12.8731 58.1756 12.0319 59.503 11.3682C60.8459 10.7045 62.567 10.2646 64.6662 10.0485C66.7654 9.81694 69.2891 9.8478 72.2372 10.1411L72.3298 13.6604C70.2306 13.3671 68.4247 13.2436 66.912 13.2899C65.3993 13.3362 64.1568 13.5292 63.1844 13.8687C62.2274 14.1929 61.5173 14.6328 61.0543 15.1885C60.6066 15.7287 60.3828 16.3538 60.3828 17.0639C60.3828 18.1752 60.7764 19.0319 61.5636 19.6339C62.3663 20.2358 63.4622 20.5368 64.8514 20.5368C66.0399 20.5368 67.105 20.3207 68.0465 19.8886C68.9881 19.4564 69.729 18.8467 70.2692 18.0595C70.8249 17.2722 71.1027 16.3461 71.1027 15.2811V9.1918C71.1027 8.17306 70.8866 7.29324 70.4545 6.55234C70.0223 5.79601 69.3663 5.20946 68.4864 4.7927C67.6066 4.37595 66.5107 4.16757 65.1987 4.16757C63.9947 4.16757 62.8062 4.35279 61.6331 4.72324C60.46 5.07826 59.3409 5.64165 58.2759 6.41342L56.8404 2.66261C58.2759 1.69018 59.7731 1.00331 61.3321 0.601984C62.8911 0.200663 64.3883 0 65.8238 0C67.9539 0 69.7753 0.33958 71.288 1.01874C72.8161 1.68246 73.9892 2.69348 74.8072 4.0518C75.6253 5.39468 76.0343 7.09258 76.0343 9.14549V23.8477H71.45V21.1388C70.6783 22.2347 69.6055 23.076 68.2318 23.6625C66.858 24.2491 65.3222 24.5423 63.6243 24.5423Z" fill="white"/>
<path d="M0 33.572V0.926039H4.58432V4.14433C5.49501 2.98667 6.66039 2.04511 8.08045 1.31964C9.50051 0.594177 11.2524 0.231445 13.3362 0.231445C15.5743 0.231445 17.5578 0.763966 19.2866 1.82901C21.0308 2.87862 22.3891 4.32183 23.3615 6.15865C24.334 7.98003 24.8202 10.0561 24.8202 12.3868C24.8202 14.0693 24.5423 15.6514 23.9867 17.1332C23.431 18.5996 22.6361 19.8885 21.6019 20.9998C20.5831 22.1112 19.3637 22.9833 17.9437 23.6161C16.5391 24.2335 14.9801 24.5422 13.2668 24.5422C11.4762 24.5422 9.90183 24.2181 8.54351 23.5698C7.18519 22.9215 6.02753 22.0494 5.07054 20.9535V33.572H0ZM12.4101 20.0274C13.8301 20.0274 15.0881 19.7187 16.184 19.1013C17.2954 18.4684 18.1598 17.5809 18.7772 16.4386C19.4101 15.2964 19.7265 13.9458 19.7265 12.3868C19.7265 10.8279 19.4101 9.47727 18.7772 8.33505C18.1443 7.17739 17.2722 6.28985 16.1609 5.67243C15.065 5.05502 13.8147 4.74631 12.4101 4.74631C10.99 4.74631 9.72432 5.05502 8.61297 5.67243C7.51705 6.28985 6.65267 7.17739 6.01982 8.33505C5.38696 9.47727 5.07054 10.8279 5.07054 12.3868C5.07054 13.9458 5.38696 15.2964 6.01982 16.4386C6.65267 17.5809 7.51705 18.4684 8.61297 19.1013C9.72432 19.7187 10.99 20.0274 12.4101 20.0274Z" fill="white"/>
</svg>
